<svg width="8" height="6" viewBox="0 0 8 6" fill="none" xmlns="http://www.w3.org/2000/svg">
<path fill-rule="evenodd" clip-rule="evenodd" d="M2.23647 0C1.9909 0 1.75312 0.0480696 1.52442 0.143555C1.29506 0.234497 1.09393 0.368392 0.922543 0.54446C0.677482 0.779715 0.513788 1.06447 0.43341 1.39509C0.391138 1.55431 0.369873 1.7164 0.369873 1.88097L0.370061 1.8868C0.375266 2.04817 0.39603 2.20517 0.432801 2.3575L0.434356 2.36314C0.47686 2.51722 0.537865 2.66557 0.616997 2.80801C0.698097 2.95399 0.800524 3.08603 0.923504 3.20394L3.71955 5.99998L6.51559 3.20394C6.63808 3.0865 6.74018 2.95504 6.82113 2.80975C6.98612 2.52698 7.06651 2.21904 7.06193 1.88957C7.06684 1.71967 7.04805 1.55396 7.00514 1.39307C6.96275 1.23408 6.90171 1.08276 6.8221 0.939466C6.74121 0.793867 6.6391 0.662132 6.51655 0.544461C6.34517 0.368393 6.14404 0.234499 5.91467 0.143556C5.68598 0.0480701 5.44819 0 5.20262 0C4.95646 0 4.71812 0.0483001 4.48891 0.144246L4.48801 0.14463C4.27661 0.234474 4.08582 0.35633 3.91641 0.509855L3.90357 0.521491L3.87918 0.554009L3.71955 0.713646L3.55991 0.554009L3.53552 0.521491L3.52268 0.509855C3.35327 0.35633 3.16248 0.234471 2.95109 0.144628L2.95018 0.144249C2.72098 0.0483026 2.48264 0 2.23647 0ZM1.48175 1.11178C1.58082 1.01271 1.69351 0.936904 1.82077 0.883399C1.9542 0.829324 2.08758 0.803031 2.222 0.803031C2.36225 0.803031 2.49519 0.829716 2.6223 0.883018L2.62417 0.88378C2.75653 0.937548 2.87113 1.01343 2.96949 1.11178L3.71231 1.85461L4.45514 1.11178C4.55445 1.01247 4.66745 0.936534 4.79509 0.883007C4.92288 0.829419 5.05347 0.803031 5.18815 0.803031C5.3284 0.803031 5.46134 0.829716 5.58845 0.883018L5.59032 0.88378C5.72268 0.937548 5.83722 1.01348 5.93558 1.11184L5.93957 1.1156C6.00676 1.17883 6.05859 1.24872 6.09689 1.32532L6.10133 1.3332C6.19206 1.49404 6.23697 1.66597 6.23697 1.85204L6.23734 1.86025C6.2403 1.9252 6.23686 1.99196 6.2267 2.06067L6.20764 2.12897C6.15825 2.30597 6.06829 2.45964 5.93564 2.59229L3.71212 4.81581L1.48167 2.59221C1.4158 2.52633 1.36078 2.45498 1.31604 2.37805C1.27039 2.29475 1.23538 2.21029 1.21056 2.12454C1.19039 2.03848 1.18023 1.95016 1.18023 1.85927C1.18023 1.7626 1.19061 1.67156 1.21081 1.5857C1.23575 1.49516 1.27062 1.41179 1.31509 1.33498L1.317 1.3315C1.36191 1.24986 1.41675 1.17678 1.48175 1.11178Z" fill="#FF2782"/>
</svg>
